<?xml version="1.0" encoding="UTF-8"?>
<!-- Generated by Pixelmator Pro 2.4.5 -->
<svg width="24" height="24" viewBox="0 0 24 24" xmlns="http://www.w3.org/2000/svg" xmlns:xlink="http://www.w3.org/1999/xlink">
    <path id="Path" fill="#ffffff" stroke="none" d="M 7 12 L 14.5 12 C 16.277025 12 17.744738 10.675674 17.970024 8.960135 C 16.288515 8.70472 15 7.252834 15 5.5 C 15 3.567003 16.567003 2 18.5 2 C 20.432997 2 22 3.567003 22 5.5 C 22 7.271555 20.683815 8.735698 18.975967 8.967908 C 18.741924 11.233313 16.827278 13 14.5 13 L 7 13 L 7 15.035444 C 8.696147 15.278059 10 16.736765 10 18.5 C 10 20.432997 8.432997 22 6.5 22 C 4.567003 22 3 20.432997 3 18.5 C 3 16.736765 4.303853 15.278059 6 15.035444 L 6 8.964556 C 4.303853 8.721941 3 7.263237 3 5.5 C 3 3.567003 4.567003 2 6.5 2 C 8.432997 2 10 3.567003 10 5.5 C 10 7.263237 8.696147 8.721941 7 8.964556 L 7 12 Z M 4 18.5 C 4 19.880713 5.119288 21 6.5 21 C 7.880712 21 9 19.880713 9 18.5 C 9 17.119287 7.880712 16 6.5 16 C 5.119288 16 4 17.119287 4 18.5 Z M 4 5.5 C 4 6.880713 5.119288 8 6.5 8 C 7.880712 8 9 6.880713 9 5.5 C 9 4.119287 7.880712 3 6.5 3 C 5.119288 3 4 4.119287 4 5.5 Z M 18.5 3 C 17.119287 3 16 4.119287 16 5.5 C 16 6.880713 17.119287 8 18.5 8 C 19.880713 8 21 6.880713 21 5.5 C 21 4.119287 19.880713 3 18.5 3 Z"/>
</svg>
