<?xml version="1.0" encoding="UTF-8"?>
<!-- Generated by Pixelmator Pro 2.4.5 -->
<svg width="24" height="24" viewBox="0 0 24 24" xmlns="http://www.w3.org/2000/svg" xmlns:xlink="http://www.w3.org/1999/xlink">
    <path id="Path" fill="#ffffff" stroke="none" d="M 18 18 L 18 4.5 C 18 3.671574 17.328426 3 16.5 3 L 5.732436 3 C 5.902606 3.294174 6 3.635714 6 4 L 6 20 C 6 20.552284 6.447715 21 7 21 C 7.552285 21 8 20.552284 8 20 L 8 18.5 C 8 18.223858 8.223858 18 8.5 18 L 18 18 Z M 19 18 L 21.5 18 C 21.776142 18 22 18.223858 22 18.5 L 22 19.5 C 22 20.880713 20.880713 22 19.5 22 L 7 22 C 5.895431 22 5 21.10457 5 20 L 5 6 L 4 6 C 2.895431 6 2 5.104568 2 4 C 2 2.895432 2.895431 2 4 2 L 16.5 2 C 17.880713 2 19 3.119287 19 4.5 L 19 18 Z M 9 19 L 9 20 C 9 20.364286 8.902606 20.705826 8.732435 21 L 19.5 21 C 20.328426 21 21 20.328426 21 19.5 L 21 19 L 9 19 Z M 5 5 L 5 4 C 5 3.447716 4.552285 3 4 3 C 3.447715 3 3 3.447716 3 4 C 3 4.552284 3.447715 5 4 5 L 5 5 Z M 8.5 7 C 8.223858 7 8 6.776142 8 6.5 C 8 6.223858 8.223858 6 8.5 6 L 15.5 6 C 15.776142 6 16 6.223858 16 6.5 C 16 6.776142 15.776142 7 15.5 7 L 8.5 7 Z M 8.5 10 C 8.223858 10 8 9.776142 8 9.5 C 8 9.223858 8.223858 9 8.5 9 L 15.5 9 C 15.776142 9 16 9.223858 16 9.5 C 16 9.776142 15.776142 10 15.5 10 L 8.5 10 Z M 8.5 13 C 8.223858 13 8 12.776142 8 12.5 C 8 12.223858 8.223858 12 8.5 12 L 15.5 12 C 15.776142 12 16 12.223858 16 12.5 C 16 12.776142 15.776142 13 15.5 13 L 8.5 13 Z M 8.5 16 C 8.223858 16 8 15.776142 8 15.5 C 8 15.223858 8.223858 15 8.5 15 L 13.5 15 C 13.776142 15 14 15.223858 14 15.5 C 14 15.776142 13.776142 16 13.5 16 L 8.5 16 Z"/>
</svg>
